<svg width="1440" height="900" viewBox="0 0 1440 900" fill="none" xmlns="http://www.w3.org/2000/svg">
  <rect width="1440" height="900" fill="#0B1320"/>
  <rect x="28" y="28" width="1384" height="844" rx="28" fill="#101B2E" stroke="#23314D"/>
  <rect x="56" y="56" width="250" height="788" rx="22" fill="#0E1727"/>
  <rect x="84" y="92" width="108" height="18" rx="9" fill="#E7F0FF"/>
  <rect x="84" y="130" width="180" height="12" rx="6" fill="#58708F"/>
  <rect x="84" y="198" width="190" height="54" rx="16" fill="#193554"/>
  <rect x="84" y="278" width="190" height="54" rx="16" fill="#132338"/>
  <rect x="84" y="358" width="190" height="54" rx="16" fill="#132338"/>
  <rect x="334" y="56" width="1050" height="110" rx="22" fill="#12233A"/>
  <rect x="370" y="92" width="290" height="20" rx="10" fill="#F4F8FF"/>
  <rect x="370" y="126" width="460" height="12" rx="6" fill="#6E86A7"/>
  <rect x="334" y="194" width="322" height="172" rx="22" fill="#13314A"/>
  <rect x="676" y="194" width="322" height="172" rx="22" fill="#14374F"/>
  <rect x="1018" y="194" width="366" height="172" rx="22" fill="#173E4E"/>
  <rect x="362" y="228" width="124" height="14" rx="7" fill="#9FC4FF"/>
  <rect x="362" y="256" width="88" height="44" rx="14" fill="#E8F1FF"/>
  <rect x="704" y="228" width="138" height="14" rx="7" fill="#8FE1D4"/>
  <rect x="704" y="256" width="102" height="44" rx="14" fill="#E9FFF8"/>
  <rect x="1046" y="228" width="164" height="14" rx="7" fill="#F9D89B"/>
  <rect x="1046" y="256" width="114" height="44" rx="14" fill="#FFF7E8"/>
  <rect x="334" y="394" width="700" height="450" rx="22" fill="#101F33"/>
  <rect x="1062" y="394" width="322" height="450" rx="22" fill="#12253C"/>
  <rect x="366" y="430" width="220" height="16" rx="8" fill="#F1F6FF"/>
  <rect x="366" y="468" width="636" height="14" rx="7" fill="#5E7798"/>
  <rect x="366" y="504" width="636" height="14" rx="7" fill="#5E7798"/>
  <rect x="366" y="540" width="636" height="14" rx="7" fill="#5E7798"/>
  <rect x="366" y="588" width="308" height="210" rx="18" fill="#152E49"/>
  <rect x="694" y="588" width="308" height="210" rx="18" fill="#193554"/>
  <rect x="1094" y="430" width="156" height="16" rx="8" fill="#F1F6FF"/>
  <rect x="1094" y="474" width="258" height="58" rx="18" fill="#173F52"/>
  <rect x="1094" y="556" width="258" height="58" rx="18" fill="#23456A"/>
  <rect x="1094" y="638" width="258" height="58" rx="18" fill="#1D334A"/>
  <rect x="1094" y="720" width="258" height="58" rx="18" fill="#1B2A3C"/>
  <text x="84" y="760" fill="#7D93B0" font-family="Arial, sans-serif" font-size="18">Smart Scraper Dashboard Preview</text>
</svg>
